<?xml version="1.0" encoding="utf-8"?>
<!-- Generator: Adobe Illustrator 26.0.3, SVG Export Plug-In . SVG Version: 6.00 Build 0)  -->
<svg version="1.0" id="katman_1" xmlns="http://www.w3.org/2000/svg" xmlns:xlink="http://www.w3.org/1999/xlink" x="0px" y="0px"
	 viewBox="0 0 491 86" style="enable-background:new 0 0 491 85;" xml:space="preserve">
<style type="text/css">
	.st0{fill:#010202;}
	.st1{fill:#3D3938;}
	.st2{fill:#D0C5C0;}
</style>
<path class="st0" d="M480.8,30.8l8.8-14.7l-4.9-15.7h-337l-1.6,11.5l-3.1-11.5h-78.5l-2.7,10.8h-6.5l-1.5,6l-8.7-16.8H19.5L0,63
	l15.5,21.3h25.6l3.1-11.8h10.3l6.9,11.8h78.9l1.9-13.7l4.4,13.7h263.6l10.7-22.1h9.6l9-17.5l9.6,39.7h26.5l14.7-21.4L480.8,30.8z
	 M253.1,45.7l0-7.5h22.7l0.2,7.5H253.1z"/>
<polygon class="st1" points="17.7,80 4.8,62.2 25.7,62.2 37.6,80 "/>
<polygon class="st1" points="53.6,62.2 74.5,62.2 83.8,80 64,80 "/>
<polygon class="st1" points="102.3,62.2 81.4,62.2 90.4,80 110.2,80 "/>
<polygon class="st1" points="109.3,62.2 116.8,80 136.6,80 130.2,62.2 "/>
<polygon class="st1" points="144.1,62.2 149.8,80 169.6,80 165,62.2 "/>
<polygon class="st1" points="172,62.2 176.2,80 222.4,80 220.8,62.2 "/>
<polygon class="st1" points="276.5,62.2 275.2,80 229,80 227.7,62.2 "/>
<polygon class="st1" points="283.5,62.2 304.4,62.2 301.6,80 281.8,80 "/>
<polygon class="st1" points="311.3,62.2 308.2,80 328,80 332.2,62.2 "/>
<polygon class="st1" points="339.2,62.2 334.6,80 354.4,80 360.1,62.2 "/>
<polygon class="st1" points="367.1,62.2 361,80 380.9,80 388,62.2 "/>
<polygon class="st1" points="394.9,62.2 387.5,80 407.3,80 415.8,62.2 "/>
<polygon class="st1" points="464.6,62.2 453.5,80 473.3,80 485.5,62.2 "/>
<path class="st2" d="M59.6,38.2h-6.8l-3.1,11.8H36l3.3-11.8h-6.8l-6.9,24H4.8l17.9-57.5h19.4L39,15.6h6.6l-3.1,11.1h13.3
	l2.9-11.1h6.6l2.7-10.8h19.4l-12.9,57.5h-20.9L59.6,38.2z"/>
<path class="st2" d="M93.8,4.8h19.4l-10.8,57.5h-20.9L93.8,4.8z"/>
<path class="st2" d="M146.6,44h-6.8l1.7-11.6h-6.7l-4.6,29.8h-20.9l10.3-57.5H139l-1.7,10.8h6.6l-1.6,11.1h6.7l3-21.9h19.4
	l-6.3,57.5h-20.9L146.6,44z"/>
<path class="st2" d="M177.8,4.8H223l-0.4,10.8h-26.2l-0.8,11.1h26.6l-0.5,11.5h-27l-0.9,11.8h27.4l-0.5,12.2H172L177.8,4.8z"/>
<path class="st2" d="M229.5,4.8h45.2l0.3,10.8h-26.2l-0.1,34.4h27.4l0.4,12.2h-48.8L229.5,4.8z"/>
<path class="st2" d="M309.5,38.2h-6.8l1.6,24h-20.9l-2.3-57.5h45.2l2.2,21.9H322l0.5,5.7h6.7l3,29.8h-20.9L309.5,38.2z
	 M301.3,15.6l0.7,11.1h6.7l-0.8-11.1H356.3z"/>
<path class="st2" d="M378.1,4.8h-45.2l6.3,57.5h20.9l-2.5-18.2h6.8l2.6,18.2H388L378.1,4.8z M362.9,25.8h3.3l1.6,10.5h-4.5
	l-0.6-3.8H356l0.5,3.8h-4.5l-1.4-10.5h3.3l-0.4-2.8h-7.7l-0.9-7.4h8.7l0.9,6.5h6.6l-0.9-6.5h8.7l1.2,7.4h-7.7L362.9,25.8z"/>
<path class="st2" d="M384.6,4.8h45.2l2.6,10.8h-26.2l2.3,11.1h26.6l2.8,11.5h-27l5,24h-20.9L384.6,4.8z"/>
<path class="st2" d="M452.1,15.6H439l-2.7-10.8h45.2l3.4,10.8h-13.1l13.7,46.6h-20.9L452.1,15.6z"/>
</svg>
